<?xml version="1.0" standalone="no"?>
<!DOCTYPE svg PUBLIC "-//W3C//DTD SVG 20010904//EN"
 "http://www.w3.org/TR/2001/REC-SVG-20010904/DTD/svg10.dtd">
<svg version="1.0" xmlns="http://www.w3.org/2000/svg"
 width="512.000000pt" height="512.000000pt" viewBox="0 0 512.000000 512.000000"
 preserveAspectRatio="xMidYMid meet">
<metadata>
Created by potrace 1.11, written by Peter Selinger 2001-2013
</metadata>
<g transform="translate(0.000000,512.000000) scale(0.100000,-0.100000)"
fill="#000000" stroke="none">
<path d="M2575 5104 c-5 -1 -77 -5 -160 -8 -82 -2 -159 -7 -170 -9 -11 -3 -42
-8 -68 -11 -409 -55 -861 -254 -1207 -533 -81 -64 -259 -236 -327 -315 -261
-300 -456 -681 -547 -1068 -28 -117 -34 -147 -41 -205 -3 -22 -10 -65 -15 -95
-9 -54 -6 -570 3 -622 3 -14 8 -39 11 -55 3 -15 8 -46 12 -68 10 -74 54 -239
100 -375 80 -235 205 -471 365 -687 91 -123 110 -144 254 -288 389 -388 926
-649 1460 -710 33 -4 74 -9 90 -11 43 -5 415 -5 445 0 14 3 53 7 87 10 75 7
297 50 336 65 15 6 27 9 27 6 0 -8 254 83 350 125 280 123 540 300 760 520
183 182 285 314 424 547 105 176 248 547 271 705 4 23 8 45 10 48 2 3 6 25 10
50 4 25 8 47 10 50 19 32 29 592 12 710 -22 159 -34 220 -79 379 -42 153 -91
279 -168 436 -184 373 -463 699 -815 950 -297 212 -715 381 -1065 431 -30 4
-64 9 -75 10 -11 2 -74 6 -140 9 -66 3 -127 7 -135 9 -8 1 -19 2 -25 0z m175
-548 c778 -74 1450 -606 1700 -1346 30 -91 72 -262 84 -345 25 -172 26 -446 2
-570 -2 -11 -7 -40 -10 -65 -12 -90 -66 -282 -111 -395 -229 -570 -687 -990
-1284 -1177 -73 -23 -71 -22 -211 -49 -507 -96 -1027 12 -1464 303 -143 95
-191 134 -306 248 -257 257 -448 597 -531 948 -73 307 -72 630 3 932 128 522
454 966 909 1239 153 91 415 202 534 225 11 3 40 9 65 14 25 6 63 13 85 16 23
4 52 9 65 11 14 3 57 8 95 11 39 3 71 7 72 8 5 4 237 -2 303 -8z"/>
<path d="M1920 3432 c-8 -3 -18 -10 -22 -16 -4 -6 -8 -428 -8 -938 l0 -926 28
-9 c47 -16 84 -7 152 37 8 5 85 48 170 95 85 47 162 89 170 95 8 5 38 21 65
36 28 14 210 115 405 224 195 108 384 213 420 232 145 80 242 136 260 153 28
26 35 76 16 117 -16 33 -79 70 -510 306 -34 18 -79 44 -101 56 -22 13 -65 37
-95 53 -30 17 -176 98 -325 180 -148 83 -301 167 -340 188 -38 21 -99 55 -135
76 -63 36 -118 51 -150 41z"/>
</g>
</svg>
